<svg width="115" height="40" viewBox="0 0 115 40" fill="none" xmlns="http://www.w3.org/2000/svg">
<path d="M3.82182 13.252C5.72982 13.252 7.33182 12.622 8.64582 11.344C9.95982 10.066 10.6078 8.518 10.6078 6.7C10.6078 4.864 9.95982 3.316 8.66382 2.056C7.36782 0.778 5.76582 0.147999 3.85782 0.147999C2.65182 0.147999 1.53582 0.417999 0.52782 0.957999V3.496C1.51782 2.866 2.65182 2.542 3.89382 2.542C4.81182 2.542 5.60382 2.812 6.30582 3.352C7.00782 3.874 7.45782 4.576 7.67382 5.422H2.88582V7.6H7.79982C7.61982 8.554 7.15182 9.346 6.41382 9.958C5.67582 10.552 4.81182 10.858 3.83982 10.858C2.38182 10.858 1.19382 10.498 0.29382 9.778V12.352C1.30182 12.946 2.47182 13.252 3.82182 13.252ZM18.6638 6.142V13H21.2018V4.018H13.4438L13.3898 6.664C13.3718 8.158 13.3178 8.914 13.1018 9.76C12.9038 10.57 12.5258 10.912 11.9318 10.912C11.7338 10.912 11.5538 10.894 11.4098 10.84V12.91C11.6078 13.018 11.9318 13.072 12.3638 13.072C14.1458 13.018 15.0098 12.064 15.4418 10.552C15.7478 9.472 15.8018 8.644 15.8558 7.402L15.8918 6.142H18.6638ZM28.5064 13C29.6404 13 30.5224 12.694 31.1524 12.1C31.7824 11.488 32.0884 10.732 32.0884 9.814C32.0884 7.888 30.6304 6.646 28.3804 6.646H26.2204V4.018H23.6824V13H28.5064ZM26.2204 8.536H27.9844C28.9744 8.536 29.5504 9.004 29.5504 9.796C29.5504 10.588 28.9744 11.038 27.9844 11.038H26.2204V8.536ZM39.0601 4.594C37.6381 4.594 36.5221 5.098 35.7121 6.124C35.7841 5.26 36.0541 4.594 36.5581 4.144C36.9361 3.802 37.1521 3.604 37.7281 3.388C38.3041 3.172 38.5381 3.082 39.2581 2.938C39.6361 2.848 39.9061 2.794 40.1041 2.758L41.0401 2.596L41.9941 2.434V0.075999C40.4461 0.327999 39.1681 0.616 38.1601 0.957999C37.1701 1.282 36.2881 1.732 35.5321 2.29C34.0381 3.388 33.4081 4.99 33.4081 7.384C33.4081 9.166 33.8401 10.588 34.6861 11.65C35.5321 12.712 36.7561 13.234 38.3401 13.234C39.6901 13.234 40.8061 12.802 41.6881 11.938C42.5881 11.074 43.0381 9.958 43.0381 8.608C43.0381 7.402 42.6601 6.43 41.9221 5.692C41.1841 4.954 40.2301 4.594 39.0601 4.594ZM38.3221 11.092C36.8101 11.092 35.9101 10.012 35.8921 8.068C36.3961 7.276 37.4041 6.7 38.4121 6.7C39.6541 6.7 40.5361 7.51 40.5361 8.788C40.5361 10.138 39.6181 11.092 38.3221 11.092ZM50.4068 3.784C49.1108 3.784 48.1208 4.234 47.4548 5.116V4.018H44.9168V16.6H47.4548V11.902C48.1568 12.784 49.1288 13.234 50.4068 13.234C51.6308 13.234 52.6388 12.784 53.4308 11.884C54.2408 10.966 54.6368 9.85 54.6368 8.518C54.6368 7.168 54.2408 6.052 53.4308 5.152C52.6388 4.234 51.6308 3.784 50.4068 3.784ZM49.6868 5.998C50.3888 5.998 50.9828 6.232 51.4328 6.718C51.8828 7.204 52.1168 7.798 52.1168 8.518C52.1168 9.22 51.8828 9.814 51.4328 10.3C50.9828 10.786 50.3888 11.02 49.6868 11.02C48.6968 11.02 47.8688 10.462 47.4548 9.688V7.348C47.8688 6.574 48.6968 5.998 49.6868 5.998ZM57.3544 16.708C58.9564 16.708 60.1444 15.79 60.9364 13.936L65.0944 4.018H62.4124L60.1624 9.922L57.7864 4.018H55.0504L58.9204 12.694C58.3984 13.936 57.8404 14.494 56.9224 14.494C56.4364 14.494 55.9684 14.368 55.5544 14.134V16.348C56.0044 16.582 56.6164 16.708 57.3544 16.708ZM70.5758 13.234C71.6378 13.234 72.5738 13.018 73.4198 12.568V10.408C72.7178 10.822 71.9078 11.02 70.9898 11.02C70.2158 11.02 69.5498 10.786 69.0098 10.318C68.4698 9.85 68.1998 9.238 68.1998 8.5C68.1998 7.762 68.4698 7.15 68.9918 6.7C69.5318 6.232 70.1978 5.998 70.9898 5.998C71.7278 5.998 72.5018 6.178 73.2758 6.538V4.378C72.4838 3.982 71.6018 3.784 70.6118 3.784C69.2618 3.784 68.1098 4.216 67.1378 5.08C66.1838 5.926 65.6978 7.06 65.6978 8.482C65.6978 9.904 66.1838 11.056 67.1378 11.938C68.0918 12.802 69.2438 13.234 70.5758 13.234ZM79.6813 13.234C80.7433 13.234 81.6793 13.018 82.5253 12.568V10.408C81.8233 10.822 81.0133 11.02 80.0953 11.02C79.3213 11.02 78.6553 10.786 78.1153 10.318C77.5753 9.85 77.3053 9.238 77.3053 8.5C77.3053 7.762 77.5753 7.15 78.0973 6.7C78.6373 6.232 79.3033 5.998 80.0953 5.998C80.8333 5.998 81.6073 6.178 82.3813 6.538V4.378C81.5893 3.982 80.7073 3.784 79.7173 3.784C78.3673 3.784 77.2153 4.216 76.2433 5.08C75.2893 5.926 74.8033 7.06 74.8033 8.482C74.8033 9.904 75.2893 11.056 76.2433 11.938C77.1973 12.802 78.3493 13.234 79.6813 13.234ZM87.2165 13V9.13L90.7625 13H94.0385L89.5205 8.068L93.4265 4.018H90.3125L87.2165 7.294V4.018H84.6785V13H87.2165ZM103.828 11.038C103.414 11.038 103.198 10.804 103.198 10.354V7.312C103.198 6.214 102.802 5.35 102.01 4.72C101.236 4.09 100.192 3.784 98.9141 3.784C97.6001 3.784 96.5021 4.018 95.5841 4.504V6.628C96.4301 6.124 97.3481 5.872 98.3021 5.872C99.8861 5.872 100.678 6.43 100.678 7.564V7.834C99.9581 7.456 99.0941 7.276 98.0861 7.276C97.1141 7.276 96.2861 7.528 95.5841 8.032C94.8821 8.536 94.5401 9.274 94.5401 10.228C94.5401 12.046 95.9081 13.234 97.8521 13.234C99.1301 13.234 100.156 12.82 100.948 12.01C101.29 12.784 101.956 13.162 102.982 13.162C103.576 13.162 104.026 13.036 104.35 12.784V10.93C104.224 11.002 104.044 11.038 103.828 11.038ZM100.678 10.354C100.21 10.966 99.5261 11.272 98.6441 11.272C97.7081 11.272 97.0421 10.894 97.0421 10.102C97.0421 9.364 97.7261 8.932 98.8061 8.932C99.5441 8.932 100.156 9.112 100.678 9.454V10.354ZM108.158 13L110.228 10.03H111.758V13H114.296V4.018H109.472C107.114 4.018 105.944 5.26 105.944 6.934C105.944 8.266 106.538 9.148 107.726 9.58L105.314 13H108.158ZM109.886 8.194C109.04 8.194 108.536 7.798 108.536 7.096C108.536 6.394 109.04 5.998 109.886 5.998H111.758V8.194H109.886ZM15.6958 36V25.722H21.0778V36H23.6518V23.4H13.1038V36H15.6958ZM31.7916 26.784C30.4956 26.784 29.5056 27.234 28.8396 28.116V27.018H26.3016V39.6H28.8396V34.902C29.5416 35.784 30.5136 36.234 31.7916 36.234C33.0156 36.234 34.0236 35.784 34.8156 34.884C35.6256 33.966 36.0216 32.85 36.0216 31.518C36.0216 30.168 35.6256 29.052 34.8156 28.152C34.0236 27.234 33.0156 26.784 31.7916 26.784ZM31.0716 28.998C31.7736 28.998 32.3676 29.232 32.8176 29.718C33.2676 30.204 33.5016 30.798 33.5016 31.518C33.5016 32.22 33.2676 32.814 32.8176 33.3C32.3676 33.786 31.7736 34.02 31.0716 34.02C30.0816 34.02 29.2536 33.462 28.8396 32.688V30.348C29.2536 29.574 30.0816 28.998 31.0716 28.998ZM40.4956 33.3C40.0276 32.814 39.7936 32.22 39.7936 31.5C39.7936 30.78 40.0276 30.186 40.4956 29.718C40.9636 29.232 41.5576 28.998 42.2776 28.998C42.9976 28.998 43.5916 29.232 44.0596 29.718C44.5276 30.186 44.7616 30.78 44.7616 31.5C44.7616 32.22 44.5276 32.814 44.0596 33.3C43.5916 33.786 42.9976 34.02 42.2776 34.02C41.5576 34.02 40.9636 33.786 40.4956 33.3ZM37.2916 31.5C37.2916 32.85 37.7596 33.966 38.6956 34.884C39.6316 35.784 40.8196 36.234 42.2776 36.234C43.7356 36.234 44.9236 35.784 45.8596 34.884C46.7956 33.966 47.2636 32.85 47.2636 31.5C47.2636 30.186 46.7956 29.07 45.8596 28.152C44.9236 27.234 43.7356 26.784 42.2776 26.784C40.8196 26.784 39.6316 27.234 38.6956 28.152C37.7596 29.052 37.2916 30.168 37.2916 31.5ZM48.0134 27.018L51.1454 31.32L47.7074 36H50.5154L52.6214 33.12L54.7094 36H57.5534L54.1334 31.302L57.2834 27.018H54.4754L52.6574 29.538L50.8574 27.018H48.0134ZM65.6853 29.142V36H68.2233V27.018H60.4653L60.4113 29.664C60.3933 31.158 60.3393 31.914 60.1233 32.76C59.9253 33.57 59.5473 33.912 58.9533 33.912C58.7553 33.912 58.5753 33.894 58.4313 33.84V35.91C58.6293 36.018 58.9533 36.072 59.3853 36.072C61.1673 36.018 62.0313 35.064 62.4633 33.552C62.7693 32.472 62.8233 31.644 62.8773 30.402L62.9133 29.142H65.6853ZM79.2539 34.038C78.8399 34.038 78.6239 33.804 78.6239 33.354V30.312C78.6239 29.214 78.2279 28.35 77.4359 27.72C76.6619 27.09 75.6179 26.784 74.3399 26.784C73.0259 26.784 71.9279 27.018 71.0099 27.504V29.628C71.8559 29.124 72.7739 28.872 73.7279 28.872C75.3119 28.872 76.1039 29.43 76.1039 30.564V30.834C75.3839 30.456 74.5199 30.276 73.5119 30.276C72.5399 30.276 71.7119 30.528 71.0099 31.032C70.3079 31.536 69.9659 32.274 69.9659 33.228C69.9659 35.046 71.3339 36.234 73.2779 36.234C74.5559 36.234 75.5819 35.82 76.3739 35.01C76.7159 35.784 77.3819 36.162 78.4079 36.162C79.0019 36.162 79.4519 36.036 79.7759 35.784V33.93C79.6499 34.002 79.4699 34.038 79.2539 34.038ZM76.1039 33.354C75.6359 33.966 74.9519 34.272 74.0699 34.272C73.1339 34.272 72.4679 33.894 72.4679 33.102C72.4679 32.364 73.1519 31.932 74.2319 31.932C74.9699 31.932 75.5819 32.112 76.1039 32.454V33.354ZM83.08 38.286V36H89.56V38.286H91.954V33.876H90.478V27.018H82.918L82.882 28.764C82.846 31.122 82.486 32.814 81.802 33.876H80.65V38.286H83.08ZM84.394 33.876C84.916 32.598 85.186 31.014 85.186 29.142H87.994V33.876H84.394ZM102.246 34.038C101.832 34.038 101.616 33.804 101.616 33.354V30.312C101.616 29.214 101.22 28.35 100.428 27.72C99.6541 27.09 98.6101 26.784 97.3321 26.784C96.0181 26.784 94.9201 27.018 94.0021 27.504V29.628C94.8481 29.124 95.7661 28.872 96.7201 28.872C98.3041 28.872 99.0961 29.43 99.0961 30.564V30.834C98.3761 30.456 97.5121 30.276 96.5041 30.276C95.5321 30.276 94.7041 30.528 94.0021 31.032C93.3001 31.536 92.9581 32.274 92.9581 33.228C92.9581 35.046 94.3261 36.234 96.2701 36.234C97.5481 36.234 98.5741 35.82 99.3661 35.01C99.7081 35.784 100.374 36.162 101.4 36.162C101.994 36.162 102.444 36.036 102.768 35.784V33.93C102.642 34.002 102.462 34.038 102.246 34.038ZM99.0961 33.354C98.6281 33.966 97.9441 34.272 97.0621 34.272C96.1261 34.272 95.4601 33.894 95.4601 33.102C95.4601 32.364 96.1441 31.932 97.2241 31.932C97.9621 31.932 98.5741 32.112 99.0961 32.454V33.354Z" fill="#2A2A2A"/>
</svg>
